<mxfile host="app.diagrams.net" modified="2021-04-07T08:32:08.464Z" agent="5.0 (Macintosh; Intel Mac OS X 10_15_5) AppleWebKit/537.36 (KHTML, like Gecko) Chrome/89.0.4389.82 Safari/537.36" etag="zBnbVyAUdiFYtCWjpdR7" version="14.5.4" type="github">
  <diagram id="-OLbHf3zVnXg6wuHdOSr" name="Page-1">
    <mxGraphModel dx="652" dy="430" grid="1" gridSize="10" guides="1" tooltips="1" connect="1" arrows="1" fold="1" page="1" pageScale="1" pageWidth="1169" pageHeight="827" math="0" shadow="0">
      <root>
        <mxCell id="0" />
        <mxCell id="1" parent="0" />
        <mxCell id="zZxohml71-mbUtK2hDem-1" value="" style="verticalLabelPosition=bottom;verticalAlign=top;html=1;shape=card;whiteSpace=wrap;size=20;arcSize=12;" vertex="1" parent="1">
          <mxGeometry x="480" y="200" width="240" height="80" as="geometry" />
        </mxCell>
        <mxCell id="zZxohml71-mbUtK2hDem-2" value="" style="verticalLabelPosition=bottom;verticalAlign=top;html=1;shape=card;whiteSpace=wrap;size=20;arcSize=12;" vertex="1" parent="1">
          <mxGeometry x="480" y="320" width="240" height="80" as="geometry" />
        </mxCell>
        <mxCell id="zZxohml71-mbUtK2hDem-3" value="" style="endArrow=blockThin;html=1;strokeWidth=3;exitX=0;exitY=0.75;exitDx=0;exitDy=0;exitPerimeter=0;endFill=1;" edge="1" parent="1" source="zZxohml71-mbUtK2hDem-2" target="zZxohml71-mbUtK2hDem-1">
          <mxGeometry width="50" height="50" relative="1" as="geometry">
            <mxPoint x="470" y="380" as="sourcePoint" />
            <mxPoint x="470" y="240" as="targetPoint" />
            <Array as="points">
              <mxPoint x="390" y="380" />
              <mxPoint x="390" y="240" />
            </Array>
          </mxGeometry>
        </mxCell>
        <mxCell id="zZxohml71-mbUtK2hDem-5" value="" style="endArrow=blockThin;html=1;strokeWidth=3;entryX=0;entryY=0.75;entryDx=0;entryDy=0;entryPerimeter=0;endFill=1;" edge="1" parent="1" source="zZxohml71-mbUtK2hDem-2" target="zZxohml71-mbUtK2hDem-1">
          <mxGeometry width="50" height="50" relative="1" as="geometry">
            <mxPoint x="470" y="360" as="sourcePoint" />
            <mxPoint x="470" y="260" as="targetPoint" />
            <Array as="points">
              <mxPoint x="420" y="360" />
              <mxPoint x="420" y="260" />
            </Array>
          </mxGeometry>
        </mxCell>
        <mxCell id="zZxohml71-mbUtK2hDem-6" value="" style="endArrow=blockThin;html=1;strokeWidth=3;exitX=1;exitY=0.5;exitDx=0;exitDy=0;exitPerimeter=0;entryX=1;entryY=0.5;entryDx=0;entryDy=0;entryPerimeter=0;endFill=1;" edge="1" parent="1" source="zZxohml71-mbUtK2hDem-1" target="zZxohml71-mbUtK2hDem-2">
          <mxGeometry width="50" height="50" relative="1" as="geometry">
            <mxPoint x="730" y="240" as="sourcePoint" />
            <mxPoint x="730" y="360" as="targetPoint" />
            <Array as="points">
              <mxPoint x="780" y="240" />
              <mxPoint x="780" y="360" />
            </Array>
          </mxGeometry>
        </mxCell>
      </root>
    </mxGraphModel>
  </diagram>
</mxfile>
